# xmcd CD database file
#
# Track frame offsets:
#	150
#	14340
#	35281
#	56480
#	73940
#	88694
#	112598
#	128795
#	148975
#	161628
#
# Disc length: 2432 seconds
#
# Revision: 0
# Processed by: cddbd v1.4PL0 Copyright (c) Steve Scherf et al.
# Submitted via: CDex 1.50
#
DISCID=85097e0a
DTITLE=Sir Charles Jones - Sir Charles Jones
DYEAR=1900
DGENRE=Blues
TTITLE0=Just Like Fire
TTITLE1=Natural Woman
TTITLE2=Better Call Jody
TTITLE3=Hang On
TTITLE4=Stop Fooling Around
TTITLE5=Take Care Of Momma
TTITLE6=If He Don't Love You
TTITLE7=I Wish He Did'nt Trust Me So Much
TTITLE8=Candy Girl
TTITLE9=Blues Spell
EXTD=
EXTT0=
EXTT1=
EXTT2=
EXTT3=
EXTT4=
EXTT5=
EXTT6=
EXTT7=
EXTT8=
EXTT9=
PLAYORDER=
